<mxfile host="drawio-plugin" modified="2023-11-24T14:56:43.679Z" agent="5.0 (Macintosh; Intel Mac OS X 10_15_7) AppleWebKit/537.36 (KHTML, like Gecko) Chrome/111.0.0.0 Safari/537.36" etag="aSb31ZFoJr4-s-hxz1iT" version="20.5.3" type="embed" pages="3"><diagram id="hoIjUPQ0-fsBYpZj0QVw" name="Overview"><mxGraphModel dx="1696" dy="762" grid="1" gridSize="10" guides="1" tooltips="1" connect="1" arrows="1" fold="1" page="0" pageScale="1" pageWidth="850" pageHeight="1100" math="0" shadow="0"><root><mxCell id="0"/><mxCell id="1" parent="0"/><mxCell id="an_aQGK2Lp0NyKb_7Ljq-3" value="URL Request&lt;br&gt;for component" style="edgeStyle=orthogonalEdgeStyle;rounded=0;orthogonalLoop=1;jettySize=auto;html=1;entryX=0;entryY=0.5;entryDx=0;entryDy=0;" parent="1" source="an_aQGK2Lp0NyKb_7Ljq-1" target="an_aQGK2Lp0NyKb_7Ljq-2" edge="1"><mxGeometry y="20" relative="1" as="geometry"><mxPoint as="offset"/></mxGeometry></mxCell><mxCell id="an_aQGK2Lp0NyKb_7Ljq-1" value="Client" style="shape=umlActor;verticalLabelPosition=bottom;verticalAlign=top;html=1;outlineConnect=0;" parent="1" vertex="1"><mxGeometry x="-330" y="210" width="30" height="60" as="geometry"/></mxCell><mxCell id="an_aQGK2Lp0NyKb_7Ljq-7" style="edgeStyle=orthogonalEdgeStyle;rounded=0;orthogonalLoop=1;jettySize=auto;html=1;entryX=0;entryY=0.5;entryDx=0;entryDy=0;" parent="1" source="an_aQGK2Lp0NyKb_7Ljq-2" target="an_aQGK2Lp0NyKb_7Ljq-6" edge="1"><mxGeometry relative="1" as="geometry"><Array as="points"><mxPoint x="80" y="240"/><mxPoint x="80" y="145"/></Array></mxGeometry></mxCell><mxCell id="an_aQGK2Lp0NyKb_7Ljq-9" value="Get content from another server&lt;br&gt;(reverse proxy)" style="edgeLabel;html=1;align=center;verticalAlign=middle;resizable=0;points=[];" parent="an_aQGK2Lp0NyKb_7Ljq-7" vertex="1" connectable="0"><mxGeometry x="-0.5934" y="4" relative="1" as="geometry"><mxPoint x="74" y="-88" as="offset"/></mxGeometry></mxCell><mxCell id="an_aQGK2Lp0NyKb_7Ljq-11" value="Get content from folder &lt;br&gt;(web server)" style="edgeStyle=orthogonalEdgeStyle;rounded=0;orthogonalLoop=1;jettySize=auto;html=1;entryX=0;entryY=0.5;entryDx=0;entryDy=0;" parent="1" source="an_aQGK2Lp0NyKb_7Ljq-2" target="an_aQGK2Lp0NyKb_7Ljq-10" edge="1"><mxGeometry x="0.2647" y="-15" relative="1" as="geometry"><Array as="points"><mxPoint x="80" y="240"/><mxPoint x="80" y="305"/></Array><mxPoint as="offset"/></mxGeometry></mxCell><mxCell id="an_aQGK2Lp0NyKb_7Ljq-2" value="RPWebServer" style="rounded=1;whiteSpace=wrap;html=1;horizontal=1;" parent="1" vertex="1"><mxGeometry x="-80" y="210" width="120" height="60" as="geometry"/></mxCell><mxCell id="an_aQGK2Lp0NyKb_7Ljq-6" value="Web Server" style="aspect=fixed;perimeter=ellipsePerimeter;html=1;align=center;shadow=0;dashed=0;spacingTop=3;image;image=img/lib/active_directory/web_server.svg;" parent="1" vertex="1"><mxGeometry x="250" y="120" width="40" height="50" as="geometry"/></mxCell><mxCell id="an_aQGK2Lp0NyKb_7Ljq-10" value="" style="aspect=fixed;perimeter=ellipsePerimeter;html=1;align=center;shadow=0;dashed=0;spacingTop=3;image;image=img/lib/active_directory/folder.svg;" parent="1" vertex="1"><mxGeometry x="251.75" y="280" width="36.5" height="50" as="geometry"/></mxCell></root></mxGraphModel></diagram><diagram id="23iRSUPoRavnBvh4doch" name="Controllers"><mxGraphModel dx="1296" dy="762" grid="1" gridSize="10" guides="1" tooltips="1" connect="1" arrows="1" fold="1" page="0" pageScale="1" pageWidth="827" pageHeight="1169" math="0" shadow="0"><root><mxCell id="0"/><mxCell id="1" parent="0"/><mxCell id="7" style="edgeStyle=orthogonalEdgeStyle;rounded=0;orthogonalLoop=1;jettySize=auto;html=1;entryX=0;entryY=0.5;entryDx=0;entryDy=0;" parent="1" source="2" target="6" edge="1"><mxGeometry relative="1" as="geometry"/></mxCell><mxCell id="12" value="Request" style="edgeLabel;html=1;align=center;verticalAlign=middle;resizable=0;points=[];" parent="7" vertex="1" connectable="0"><mxGeometry x="-0.1789" y="2" relative="1" as="geometry"><mxPoint y="-8" as="offset"/></mxGeometry></mxCell><mxCell id="2" value="Controllers" style="rounded=1;whiteSpace=wrap;html=1;" parent="1" vertex="1"><mxGeometry x="210" y="350" width="120" height="60" as="geometry"/></mxCell><mxCell id="4" style="edgeStyle=orthogonalEdgeStyle;rounded=0;orthogonalLoop=1;jettySize=auto;html=1;" parent="1" source="3" target="2" edge="1"><mxGeometry relative="1" as="geometry"/></mxCell><mxCell id="3" value="Client" style="shape=umlActor;verticalLabelPosition=bottom;verticalAlign=top;html=1;outlineConnect=0;" parent="1" vertex="1"><mxGeometry x="255" y="140" width="30" height="60" as="geometry"/></mxCell><mxCell id="9" style="edgeStyle=orthogonalEdgeStyle;rounded=0;orthogonalLoop=1;jettySize=auto;html=1;entryX=0;entryY=0.5;entryDx=0;entryDy=0;" parent="1" source="6" target="8" edge="1"><mxGeometry relative="1" as="geometry"/></mxCell><mxCell id="13" value="Request" style="edgeLabel;html=1;align=center;verticalAlign=middle;resizable=0;points=[];" parent="9" vertex="1" connectable="0"><mxGeometry x="-0.0421" y="4" relative="1" as="geometry"><mxPoint y="-6" as="offset"/></mxGeometry></mxCell><mxCell id="6" value="Mediator" style="ellipse;whiteSpace=wrap;html=1;" parent="1" vertex="1"><mxGeometry x="520" y="340" width="120" height="80" as="geometry"/></mxCell><mxCell id="8" value="Command Handler" style="rounded=1;whiteSpace=wrap;html=1;" parent="1" vertex="1"><mxGeometry x="830" y="350" width="120" height="60" as="geometry"/></mxCell><mxCell id="nSwMTUA1Ayu0Em7r5msc-15" style="edgeStyle=orthogonalEdgeStyle;rounded=0;orthogonalLoop=1;jettySize=auto;html=1;entryX=0.5;entryY=1;entryDx=0;entryDy=0;" edge="1" parent="1" source="nSwMTUA1Ayu0Em7r5msc-13" target="2"><mxGeometry relative="1" as="geometry"><Array as="points"><mxPoint x="80" y="460"/><mxPoint x="270" y="460"/></Array></mxGeometry></mxCell><mxCell id="nSwMTUA1Ayu0Em7r5msc-13" value="ComponentsController" style="rounded=1;whiteSpace=wrap;html=1;" vertex="1" parent="1"><mxGeometry y="520" width="160" height="60" as="geometry"/></mxCell><mxCell id="nSwMTUA1Ayu0Em7r5msc-16" style="edgeStyle=orthogonalEdgeStyle;rounded=0;orthogonalLoop=1;jettySize=auto;html=1;entryX=0.5;entryY=1;entryDx=0;entryDy=0;" edge="1" parent="1" source="nSwMTUA1Ayu0Em7r5msc-14" target="2"><mxGeometry relative="1" as="geometry"><Array as="points"><mxPoint x="440" y="460"/><mxPoint x="270" y="460"/></Array></mxGeometry></mxCell><mxCell id="nSwMTUA1Ayu0Em7r5msc-14" value="ReverseProxyController" style="rounded=1;whiteSpace=wrap;html=1;" vertex="1" parent="1"><mxGeometry x="360" y="520" width="160" height="60" as="geometry"/></mxCell></root></mxGraphModel></diagram><diagram id="A0T6SrLOBzOb_WVzB4OK" name="Services"><mxGraphModel dx="1296" dy="762" grid="1" gridSize="10" guides="1" tooltips="1" connect="1" arrows="1" fold="1" page="0" pageScale="1" pageWidth="850" pageHeight="1100" math="0" shadow="0"><root><mxCell id="0"/><mxCell id="1" parent="0"/><mxCell id="zzIHEhkbpTFORBGM2hry-3" style="edgeStyle=orthogonalEdgeStyle;rounded=0;orthogonalLoop=1;jettySize=auto;html=1;entryX=0;entryY=0.5;entryDx=0;entryDy=0;endArrow=none;endFill=0;startArrow=diamond;startFill=1;" edge="1" parent="1" source="zzIHEhkbpTFORBGM2hry-1" target="zzIHEhkbpTFORBGM2hry-2"><mxGeometry relative="1" as="geometry"/></mxCell><mxCell id="zzIHEhkbpTFORBGM2hry-4" value="*" style="edgeLabel;html=1;align=center;verticalAlign=middle;resizable=0;points=[];" vertex="1" connectable="0" parent="zzIHEhkbpTFORBGM2hry-3"><mxGeometry x="0.8" y="2" relative="1" as="geometry"><mxPoint x="13" y="-8" as="offset"/></mxGeometry></mxCell><mxCell id="zzIHEhkbpTFORBGM2hry-1" value="&lt;div style=&quot;background-color:#262626;color:#d0d0d0&quot;&gt;&lt;pre style=&quot;font-family:'JetBrains Mono',monospace;font-size:10.5pt;&quot;&gt;ComponentsMappingService&lt;/pre&gt;&lt;/div&gt;" style="rounded=1;whiteSpace=wrap;html=1;" vertex="1" parent="1"><mxGeometry x="120" y="120" width="250" height="60" as="geometry"/></mxCell><mxCell id="zzIHEhkbpTFORBGM2hry-2" value="&lt;div style=&quot;background-color:#262626;color:#d0d0d0&quot;&gt;&lt;pre style=&quot;font-family:'JetBrains Mono',monospace;font-size:10.5pt;&quot;&gt;IComponentProvider&lt;/pre&gt;&lt;/div&gt;" style="rounded=1;whiteSpace=wrap;html=1;" vertex="1" parent="1"><mxGeometry x="600" y="120" width="190" height="60" as="geometry"/></mxCell><mxCell id="zzIHEhkbpTFORBGM2hry-6" style="edgeStyle=orthogonalEdgeStyle;rounded=0;orthogonalLoop=1;jettySize=auto;html=1;entryX=0.5;entryY=1;entryDx=0;entryDy=0;startArrow=none;startFill=0;endArrow=classic;endFill=1;" edge="1" parent="1" source="zzIHEhkbpTFORBGM2hry-5" target="zzIHEhkbpTFORBGM2hry-2"><mxGeometry relative="1" as="geometry"/></mxCell><mxCell id="zzIHEhkbpTFORBGM2hry-5" value="&lt;div style=&quot;background-color:#262626;color:#d0d0d0&quot;&gt;&lt;pre style=&quot;font-family:'JetBrains Mono',monospace;font-size:10.5pt;&quot;&gt;ComponentFileProvider&lt;/pre&gt;&lt;/div&gt;" style="rounded=1;whiteSpace=wrap;html=1;" vertex="1" parent="1"><mxGeometry x="575" y="300" width="240" height="60" as="geometry"/></mxCell><mxCell id="K1EJGTlM13GlT_b6cHCI-3" style="edgeStyle=orthogonalEdgeStyle;rounded=0;orthogonalLoop=1;jettySize=auto;html=1;startArrow=none;startFill=0;endArrow=none;endFill=0;" edge="1" parent="1" source="K1EJGTlM13GlT_b6cHCI-1" target="K1EJGTlM13GlT_b6cHCI-2"><mxGeometry relative="1" as="geometry"/></mxCell><mxCell id="K1EJGTlM13GlT_b6cHCI-1" value="Reverse Proxy&lt;br&gt;(YARP)" style="rounded=1;whiteSpace=wrap;html=1;" vertex="1" parent="1"><mxGeometry x="120" y="510" width="230" height="60" as="geometry"/></mxCell><mxCell id="K1EJGTlM13GlT_b6cHCI-2" value="IProxyConfigProvider&lt;br&gt;(YARP)" style="rounded=1;whiteSpace=wrap;html=1;" vertex="1" parent="1"><mxGeometry x="595" y="510" width="200" height="60" as="geometry"/></mxCell><mxCell id="K1EJGTlM13GlT_b6cHCI-5" style="edgeStyle=orthogonalEdgeStyle;rounded=0;orthogonalLoop=1;jettySize=auto;html=1;entryX=0.5;entryY=1;entryDx=0;entryDy=0;startArrow=none;startFill=0;endArrow=classic;endFill=1;" edge="1" parent="1" source="K1EJGTlM13GlT_b6cHCI-4" target="K1EJGTlM13GlT_b6cHCI-2"><mxGeometry relative="1" as="geometry"/></mxCell><mxCell id="K1EJGTlM13GlT_b6cHCI-4" value="CustomProxyConfigProvider" style="rounded=1;whiteSpace=wrap;html=1;" vertex="1" parent="1"><mxGeometry x="585" y="680" width="220" height="60" as="geometry"/></mxCell></root></mxGraphModel></diagram></mxfile>